<?xml version="1.0" encoding="UTF-8" standalone="no"?>
<!DOCTYPE svg PUBLIC "-//W3C//DTD SVG 1.1//EN" "http://www.w3.org/Graphics/SVG/1.1/DTD/svg11.dtd">
<svg version="1.1" xmlns="http://www.w3.org/2000/svg" xmlns:xlink="http://www.w3.org/1999/xlink" preserveAspectRatio="xMidYMid meet" viewBox="0 0 60 60" width="60" height="60"><defs><path d="M58.11 0C59.15 0 60 0.85 60 1.89C60 13.51 60 46.49 60 58.11C60 59.15 59.15 60 58.11 60C46.49 60 13.51 60 1.89 60C0.85 60 0 59.15 0 58.11C0 46.49 0 13.51 0 1.89C0 0.85 0.85 0 1.89 0C13.51 0 46.49 0 58.11 0Z" id="bmUYnBzT1"></path><clipPath id="clipc6UUuQtG5x"><use xlink:href="#bmUYnBzT1" opacity="1"></use></clipPath><path d="M46.16 29.31L30 6.51L13.84 29.31L24.08 29.31L24.08 53.49L35.94 53.49L35.94 29.31L46.16 29.31Z" id="a5wnpHBhF"></path></defs><g><g><g><use xlink:href="#bmUYnBzT1" opacity="1" fill="#ffffff" fill-opacity="1"></use><g clip-path="url(#clipc6UUuQtG5x)"><use xlink:href="#bmUYnBzT1" opacity="1" fill-opacity="0" stroke="#1281fc" stroke-width="10" stroke-opacity="1"></use></g></g><g><use xlink:href="#a5wnpHBhF" opacity="1" fill="#2196f3" fill-opacity="1"></use><g><use xlink:href="#a5wnpHBhF" opacity="1" fill-opacity="0" stroke="#1281fc" stroke-width="0" stroke-opacity="1"></use></g></g></g></g></svg>